<?xml version="1.0" encoding="UTF-8"?>
<svg width="95px" height="89px" viewBox="0 0 95 89" version="1.1" xmlns="http://www.w3.org/2000/svg" xmlns:xlink="http://www.w3.org/1999/xlink">
    <!-- Generator: Sketch 53.2 (72643) - https://sketchapp.com -->
    <title>Group 10</title>
    <desc>Created with Sketch.</desc>
    <defs>
        <polygon id="path-1" points="0.000439189189 0.735792079 64.75625 0.735792079 64.75625 88.9999119 0.000439189189 88.9999119"></polygon>
        <path d="M36,40.6575524 C31.7710949,40.6575524 28.3427737,37.2292813 28.3427737,33.0004379 C28.3427737,28.7707187 31.7710949,25.3433235 36,25.3433235 C40.229781,25.3433235 43.6581022,28.7707187 43.6581022,33.0004379 C43.6581022,37.2292813 40.229781,40.6575524 36,40.6575524 M64.56,28.3502869 L62.9018978,28.0323353 C62.2239416,27.9018263 61.6659854,27.4008117 61.500438,26.7307485 C61.4119708,26.3742573 61.3164964,26.0212698 61.2140146,25.670034 C61.0221898,25.0166129 61.2508029,24.3106378 61.7667153,23.8656808 L63.0586861,22.747157 C63.7024818,22.1909607 63.860146,21.2554999 63.4344526,20.5179924 L60.5272993,15.4824455 C60.1024818,14.7458139 59.2125547,14.4147239 58.4084672,14.69326 L56.7932847,15.2547116 C56.1468613,15.478066 55.419854,15.3239077 54.9459854,14.8299003 C54.6928467,14.5662545 54.4344526,14.3078641 54.1708029,14.0547291 C53.6767883,13.5808674 53.5226277,12.8529948 53.7468613,12.2074568 L54.3074453,10.591422 C54.5859854,9.78734617 54.2548905,8.89918395 53.5182482,8.47349674 L48.4826277,5.56638589 C47.7459854,5.14069868 46.8105109,5.29836061 46.2534307,5.94214683 L45.1348905,7.23409877 C44.6890511,7.75000365 43.9839416,7.97773755 43.3305109,7.78679143 C42.9792701,7.68343528 42.6262774,7.58883812 42.269781,7.50037226 C41.599708,7.33482723 41.0986861,6.77600327 40.9681752,6.09893286 L40.650219,4.44085488 C40.489927,3.60437074 39.7585401,3 38.9071533,3 L33.0937226,3 C32.2414599,3 31.5109489,3.60437074 31.3506569,4.44085488 L31.0327007,6.09893286 C30.9021898,6.77600327 30.400292,7.33482723 29.7310949,7.50037226 C29.3745985,7.58883812 29.0207299,7.68343528 28.670365,7.78679143 C28.0160584,7.97773755 27.3109489,7.75000365 26.8651095,7.23409877 L25.7474453,5.94214683 C25.190365,5.29836061 24.2548905,5.14069868 23.5182482,5.56638589 L18.4826277,8.47349674 C17.7451095,8.89918395 17.4140146,9.78734617 17.6934307,10.591422 L18.2540146,12.2074568 C18.4782482,12.8529948 18.3232117,13.5808674 17.830073,14.0547291 C17.5664234,14.3078641 17.3071533,14.5662545 17.0540146,14.8299003 C16.5810219,15.3239077 15.8531387,15.478066 15.2067153,15.2547116 L13.5915328,14.69326 C12.7874453,14.4147239 11.8983942,14.7458139 11.4735766,15.4824455 L8.56554745,20.5179924 C8.13985401,21.2554999 8.29839416,22.1909607 8.94131387,22.747157 L10.2341606,23.8656808 C10.7491971,24.3106378 10.9778102,25.0166129 10.7859854,25.670034 C10.6843796,26.0212698 10.5880292,26.3742573 10.500438,26.7307485 C10.3340146,27.4008117 9.77605839,27.9018263 9.0989781,28.0323353 L7.44,28.3502869 C6.60437956,28.5105765 6,29.2419527 6,30.0933271 L6,35.9075488 C6,36.7580473 6.60437956,37.4894235 7.44,37.6497131 L9.0989781,37.9685406 C9.77605839,38.0981737 10.3340146,38.5991883 10.500438,39.2692515 C10.5880292,39.6257427 10.6843796,39.9796061 10.7859854,40.329966 C10.9778102,40.984263 10.7491971,41.6893622 10.2341606,42.1351951 L8.94131387,43.252843 C8.29839416,43.8099152 8.13985401,44.745376 8.56554745,45.4820076 L11.4735766,50.5175545 C11.8983942,51.255062 12.7874453,51.586152 13.5915328,51.30674 L15.2067153,50.7461643 C15.8531387,50.521934 16.5810219,50.6769682 17.0540146,51.1700997 C17.3071533,51.4346214 17.5664234,51.6930118 17.830073,51.9461468 C18.3232117,52.4191326 18.4782482,53.1470052 18.2540146,53.7934191 L17.6934307,55.408578 C17.4140146,56.2126538 17.7451095,57.1016919 18.4826277,57.5273792 L23.5182482,60.43449 C24.2548905,60.8593013 25.190365,60.7025153 25.7474453,60.0587291 L26.8651095,58.7659012 C27.3109489,58.2499964 28.0160584,58.0222624 28.670365,58.2132086 C29.0207299,58.3165647 29.3745985,58.4120378 29.7310949,58.5005036 C30.400292,58.6660487 30.9021898,59.2239967 31.0327007,59.901943 L31.3506569,61.560021 C31.5109489,62.3956293 32.2414599,63 33.0937226,63 L38.9071533,63 C39.7585401,63 40.489927,62.3956293 40.650219,61.560021 L40.9681752,59.901943 C41.0978102,59.2239967 41.599708,58.6660487 42.269781,58.5005036 C42.6262774,58.4120378 42.9792701,58.3165647 43.3305109,58.2132086 C43.9839416,58.0222624 44.6890511,58.2499964 45.1348905,58.7659012 L46.2534307,60.0587291 C46.8105109,60.7025153 47.7459854,60.8593013 48.4826277,60.43449 L53.5182482,57.5273792 C54.2548905,57.1016919 54.5859854,56.2126538 54.3074453,55.408578 L53.7468613,53.7934191 C53.5226277,53.1470052 53.6767883,52.4191326 54.1708029,51.9461468 C54.4344526,51.6930118 54.6928467,51.4346214 54.9459854,51.1700997 C55.419854,50.6769682 56.1477372,50.521934 56.7932847,50.7461643 L58.4084672,51.30674 C59.2125547,51.586152 60.1024818,51.255062 60.5272993,50.5175545 L63.4344526,45.4820076 C63.860146,44.745376 63.7024818,43.8099152 63.0586861,43.252843 L61.7667153,42.1351951 C61.2508029,41.6893622 61.0221898,40.984263 61.2140146,40.329966 C61.3164964,39.9796061 61.4119708,39.6257427 61.500438,39.2692515 C61.6659854,38.5991883 62.2239416,38.0981737 62.9018978,37.9685406 L64.56,37.6497131 C65.3964964,37.4894235 66,36.7580473 66,35.9075488 L66,30.0933271 C66,29.2419527 65.3964964,28.5105765 64.56,28.3502869" id="path-3"></path>
    </defs>
    <g id="Page-1" stroke="none" stroke-width="1" fill="none" fill-rule="evenodd">
        <g id="Start-Copy" transform="translate(-240.000000, -1744.000000)">
            <g id="Group-2" transform="translate(240.000000, 1744.000000)">
                <g id="Group-10">
                    <g id="Group-3">
                        <mask id="mask-2" fill="white">
                            <use xlink:href="#path-1"></use>
                        </mask>
                        <g id="Clip-2"></g>
                        <path d="M59.8961824,88.9999119 L4.85962838,88.9999119 C2.17618243,88.9999119 0.000439189189,86.8172089 0.000439189189,84.124298 L0.000439189189,5.61131782 C0.000439189189,2.91840693 2.17618243,0.73570396 4.85962838,0.73570396 L59.8961824,0.73570396 C62.5805068,0.73570396 64.75625,2.91840693 64.75625,5.61131782 L64.75625,84.124298 C64.75625,86.8172089 62.5805068,88.9999119 59.8961824,88.9999119" id="Fill-1" fill="#FF0843" mask="url(#mask-2)"></path>
                    </g>
                    <g id="Group-21" transform="translate(29.000000, 20.000000)">
                        <mask id="mask-4" fill="white">
                            <use xlink:href="#path-3"></use>
                        </mask>
                        <use id="Fill-8" fill="#3BC4F4" xlink:href="#path-3"></use>
                        <rect id="Rectangle" fill="#660D40" fill-rule="nonzero" mask="url(#mask-4)" x="0" y="0" width="36" height="63"></rect>
                    </g>
                    <polygon id="Fill-4" fill="#FFFFFF" points="8 18 57 18 57 14 8 14"></polygon>
                    <polygon id="Fill-6" fill="#FFAB00" points="8 32 37 32 37 28 8 28"></polygon>
                    <polygon id="Fill-7" fill="#FFAB00" points="8 46 30 46 30 42 8 42"></polygon>
                    <path d="M94,10 C94,5.58196814 90.4180319,2 86,2 C81.5819681,2 78,5.58196814 78,10 C78,14.4180319 81.5819681,18 86,18 C90.4180319,18 94,14.4180319 94,10" id="Fill-9" fill="#FFAB00"></path>
                </g>
            </g>
        </g>
    </g>
</svg>