<?xml version="1.0" encoding="UTF-8"?>
<svg width="71px" height="89px" viewBox="0 0 71 89" version="1.1" xmlns="http://www.w3.org/2000/svg" xmlns:xlink="http://www.w3.org/1999/xlink">
    <!-- Generator: Sketch 53.2 (72643) - https://sketchapp.com -->
    <title>Group 9</title>
    <desc>Created with Sketch.</desc>
    <defs>
        <polygon id="path-1" points="0.412746988 0.0892695652 69.7835904 0.0892695652 69.7835904 58 0.412746988 58"></polygon>
        <polygon id="path-3" points="0 0.693628235 70.3524631 0.693628235 70.3524631 70.2184988 0 70.2184988"></polygon>
    </defs>
    <g id="Page-1" stroke="none" stroke-width="1" fill="none" fill-rule="evenodd">
        <g id="Start-Copy" transform="translate(-721.000000, -1744.000000)">
            <g id="Group-9" transform="translate(721.000000, 1744.000000)">
                <g id="Group-3" transform="translate(0.000000, 31.000000)">
                    <mask id="mask-2" fill="white">
                        <use xlink:href="#path-1"></use>
                    </mask>
                    <g id="Clip-2"></g>
                    <path d="M67.5166024,53.1399362 C50.8270843,52.0732406 39.3352771,31.7228058 38.9220241,2.50005217 L38.9220241,2.50005217 C38.9026265,1.17109565 37.8079277,0.0892695652 36.4821446,0.0892695652 L33.7150361,0.0892695652 C32.389253,0.0892695652 31.2945542,1.17109565 31.2751566,2.50005217 C30.8619036,31.7228058 19.3700964,52.0732406 2.68142169,53.1399362 C1.40961446,53.2214725 0.412746988,54.2856464 0.412746988,55.5641681 C0.412746988,56.9074145 1.50913253,58.0001681 2.85768675,58.0001681 L67.3403373,58.0001681 C68.6880482,58.0001681 69.7835904,56.9074145 69.7835904,55.5641681 C69.7835904,54.2856464 68.7884096,53.2214725 67.5166024,53.1399362" id="Fill-1" fill="#FF0843" mask="url(#mask-2)"></path>
                </g>
                <g id="Group-6">
                    <mask id="mask-4" fill="white">
                        <use xlink:href="#path-3"></use>
                    </mask>
                    <g id="Clip-5"></g>
                    <path d="M35.1761893,63.1702871 C19.6880464,63.1702871 7.13203452,50.7619929 7.13203452,35.4552282 C7.13203452,20.1492988 19.6880464,7.74100471 35.1761893,7.74100471 C50.6651774,7.74100471 63.2211893,20.1492988 63.2211893,35.4552282 C63.2211893,50.7619929 50.6651774,63.1702871 35.1761893,63.1702871 M35.1761893,0.693628235 C15.7492369,0.693628235 -8.45238095e-05,16.2568282 -8.45238095e-05,35.4552282 C-8.45238095e-05,54.6544635 15.7492369,70.2184988 35.1761893,70.2184988 C54.6031417,70.2184988 70.3524631,54.6544635 70.3524631,35.4552282 C70.3524631,16.2568282 54.6031417,0.693628235 35.1761893,0.693628235" id="Fill-4" fill="#FFAB00" mask="url(#mask-4)"></path>
                </g>
                <path d="M49,35.5 C49,28.0444308 42.7327499,22 35.0004284,22 C27.2681069,22 21,28.0444308 21,35.5 C21,42.9563953 27.2681069,49 35.0004284,49 C42.7327499,49 49,42.9563953 49,35.5" id="Fill-7" fill="#3BC4F4"></path>
            </g>
        </g>
    </g>
</svg>