<?xml version="1.0" encoding="UTF-8"?>
<svg width="118px" height="39px" viewBox="0 0 118 39" version="1.1" xmlns="http://www.w3.org/2000/svg" xmlns:xlink="http://www.w3.org/1999/xlink">
    <!-- Generator: Sketch 53.2 (72643) - https://sketchapp.com -->
    <title>Group 15</title>
    <desc>Created with Sketch.</desc>
    <defs>
        <polygon id="path-1" points="0.000129824561 0.142135714 36.3841123 0.142135714 36.3841123 27 0.000129824561 27"></polygon>
        <polygon id="path-3" points="0.297622807 0.142135714 36.6816053 0.142135714 36.6816053 27 0.297622807 27"></polygon>
    </defs>
    <g id="Page-1" stroke="none" stroke-width="1" fill="none" fill-rule="evenodd">
        <g id="Start-Copy" transform="translate(-1194.000000, -1769.000000)">
            <g id="Group-15" transform="translate(1194.000000, 1769.000000)">
                <path d="M71.777864,17.371492 L88.863076,11.6842184 C89.3593161,11.5192668 89.6995389,11.0121214 89.6995389,10.4377015 L89.6995389,8.29138969 C89.6995389,7.44205049 88.9777947,6.81976236 88.2357289,7.02999483 L70.8817475,11.948141 L64.0635266,3.43663668 C63.8406447,3.15912981 63.5213991,3 63.1864206,3 L58.5,3 L53.8129238,3 C53.4779454,3 53.1593553,3.15912981 52.9364734,3.43663668 L46.117597,11.948141 L28.7642711,7.02999483 C28.0222053,6.81976236 27.3004611,7.44205049 27.3004611,8.29138969 L27.3004611,10.4377015 C27.3004611,11.0121214 27.6400283,11.5192668 28.1362684,11.6842184 L45.222136,17.371492 L15.9170936,24.6461825 C15.3808659,24.7787907 15,25.3066359 15,25.9159867 L15,30.6982903 C15,31.5482764 15.7223997,32.1699177 16.4644655,31.9583914 L46.4440535,23.427481 L46.4440535,27.6392461 C46.4440535,28.3579177 46.9691371,28.9407468 47.6168058,28.9407468 L58.5,28.9407468 L69.3831942,28.9407468 C70.0308629,28.9407468 70.5559465,28.3579177 70.5559465,27.6392461 L70.5559465,23.427481 L100.535535,31.9583914 C101.276945,32.1699177 102,31.5482764 102,30.6982903 L102,25.9159867 C102,25.3066359 101.618479,24.7787907 101.082906,24.6461825 L71.777864,17.371492 Z" id="Fill-1" fill="#FF0843"></path>
                <polygon id="Fill-3" fill="#FFAB00" points="6 8.42805929 8.01145209 12 23.706426 11.0375087 28.1962392 7.01674782 31.6708044 6.39263738 34.4079027 7.0064744 47 1.92690888 45.0299196 0 31.5539129 3.0563433 28.149614 4.512601 20.6876061 4.62753491"></polygon>
                <g id="Group-7" transform="translate(0.000000, 12.000000)">
                    <mask id="mask-2" fill="white">
                        <use xlink:href="#path-1"></use>
                    </mask>
                    <g id="Clip-6"></g>
                    <polygon id="Fill-5" fill="#3BC4F4" mask="url(#mask-2)" points="0.000129824561 0.142135714 3.40153333 0.142135714 16.3885333 8.34885 18.4494982 11.8492071 24.6343404 13.91535 36.3841123 24.7044214 32.4673053 27.0000643 18.1917965 16.3254214 16.1821123 13.5707786 10.8223053 10.1276357"></polygon>
                </g>
                <polygon id="Fill-8" fill="#FFAB00" points="112 8.42805929 109.989205 12 94.2942307 11.0375087 89.8037608 7.01674782 86.3298523 6.39263738 83.5927539 7.0064744 71 1.92690888 72.9700804 0 86.4460871 3.0563433 89.850386 4.512601 97.3130506 4.62753491"></polygon>
                <g id="Group-12" transform="translate(81.000000, 12.000000)">
                    <mask id="mask-4" fill="white">
                        <use xlink:href="#path-3"></use>
                    </mask>
                    <g id="Clip-11"></g>
                    <polygon id="Fill-10" fill="#3BC4F4" mask="url(#mask-4)" points="36.6816053 0.142135714 33.2802018 0.142135714 20.2932018 8.34885 18.2322368 11.8492071 12.0473947 13.91535 0.297622807 24.7044214 4.21442982 27.0000643 18.4899386 16.3254214 20.4996228 13.5707786 25.8594298 10.1276357"></polygon>
                </g>
                <path d="M64.9276843,37 L53.0723157,37 C51.3823767,37 50,35.6150686 50,33.9220065 L50,30.0779935 C50,28.3855941 51.3823767,27 53.0723157,27 L64.9276843,27 C66.6176233,27 68,28.3855941 68,30.0779935 L68,33.9220065 C68,35.6150686 66.6176233,37 64.9276843,37" id="Fill-13" fill="#3BC4F4"></path>
            </g>
        </g>
    </g>
</svg>