<?xml version="1.0" encoding="UTF-8"?>
<svg width="94px" height="86px" viewBox="0 0 94 86" version="1.1" xmlns="http://www.w3.org/2000/svg" xmlns:xlink="http://www.w3.org/1999/xlink">
    <!-- Generator: Sketch 53.2 (72643) - https://sketchapp.com -->
    <title>Group 8</title>
    <desc>Created with Sketch.</desc>
    <defs>
        <polygon id="path-1" points="0 0.570921951 77.429078 0.570921951 77.429078 78 0 78"></polygon>
    </defs>
    <g id="Page-1" stroke="none" stroke-width="1" fill="none" fill-rule="evenodd">
        <g id="Start-Copy" transform="translate(-240.000000, -2069.000000)">
            <g id="Group-8" transform="translate(240.000000, 2069.000000)">
                <g id="Group-3" transform="translate(0.000000, 8.000000)">
                    <mask id="mask-2" fill="white">
                        <use xlink:href="#path-1"></use>
                    </mask>
                    <g id="Clip-2"></g>
                    <path d="M38.7144439,49.1677756 C33.2572976,49.1677756 28.8322244,44.7436537 28.8322244,39.2855561 C28.8322244,33.8274585 33.2572976,29.4042878 38.7144439,29.4042878 C44.1715902,29.4042878 48.5966634,33.8274585 48.5966634,39.2855561 C48.5966634,44.7436537 44.1715902,49.1677756 38.7144439,49.1677756 M75.5703951,33.2852634 L73.4311024,32.8743366 C72.5559805,32.7059707 71.8359073,32.0600927 71.6218829,31.1944829 C71.5086878,30.7350439 71.3850293,30.2794098 71.2528098,29.8266293 C71.0054927,28.9819463 71.2994195,28.0716293 71.9652732,27.4970927 L73.632761,26.0540927 C74.4641268,25.335922 74.6667366,24.1288244 74.1178829,23.1776049 L70.3662732,16.6788732 C69.8174195,15.7276537 68.6702488,15.3005561 67.6324683,15.6610683 L65.5473951,16.3849463 C64.7141268,16.6741171 63.7752732,16.474361 63.163639,15.8370439 C62.8373707,15.4965073 62.5034927,15.1626293 62.1629561,14.836361 C61.525639,14.225678 61.3258829,13.2858732 61.6160049,12.4526049 L62.3389317,10.3675317 C62.6994439,9.32975122 62.2723463,8.18258049 61.3211268,7.63372683 L54.8233463,3.88211707 C53.8721268,3.3323122 52.6650293,3.53587317 51.9459073,4.36723902 L50.5029073,6.03472683 C49.9274195,6.69962927 49.0180537,6.99450732 48.1733707,6.74814146 C47.7215415,6.61497073 47.2649561,6.49226341 46.8045659,6.37811707 C45.9408585,6.16409268 45.2940293,5.44401951 45.1256634,4.56889756 L44.7156878,2.42960488 C44.508322,1.35092195 43.5647122,0.570921951 42.4660537,0.570921951 L34.9628341,0.570921951 C33.8641756,0.570921951 32.9205659,1.35092195 32.7141512,2.42960488 L32.3032244,4.56889756 C32.1358098,5.44401951 31.4889805,6.16409268 30.624322,6.37811707 C30.1639317,6.49226341 29.7082976,6.61497073 29.2555171,6.74814146 C28.4108341,6.99450732 27.5014683,6.69962927 26.9259805,6.03472683 L25.4829805,4.36723902 C24.7648098,3.53587317 23.5577122,3.3323122 22.6064927,3.88211707 L16.107761,7.63372683 C15.1565415,8.18258049 14.7303951,9.32975122 15.0899561,10.3675317 L15.8138341,12.4526049 C16.1030049,13.2858732 15.9032488,14.225678 15.2659317,14.836361 C14.9253951,15.1626293 14.5924683,15.4965073 14.2652488,15.8370439 C13.6545659,16.474361 12.714761,16.6741171 11.8814927,16.3849463 L9.79641951,15.6610683 C8.75863902,15.3005561 7.61146829,15.7276537 7.06261463,16.6788732 L3.31100488,23.1776049 C2.76215122,24.1288244 2.96476098,25.335922 3.79612683,26.0540927 L5.46361463,27.4970927 C6.12946829,28.0716293 6.42339512,28.9819463 6.17607805,29.825678 C6.04480976,30.2794098 5.92115122,30.7350439 5.80700488,31.1944829 C5.59298049,32.0600927 4.87290732,32.7059707 3.99873659,32.8743366 L1.85849268,33.2852634 C0.779809756,33.4926293 -0.000190243902,34.436239 -0.000190243902,35.5339463 L-0.000190243902,43.0371659 C-0.000190243902,44.1358244 0.779809756,45.0784829 1.85849268,45.2858488 L3.99873659,45.6967756 C4.87290732,45.8641902 5.59298049,46.5110195 5.80700488,47.375678 C5.92115122,47.8360683 6.04480976,48.2917024 6.17607805,48.7454341 C6.42339512,49.5882146 6.12946829,50.4985317 5.46361463,51.0740195 L3.79612683,52.5170195 C2.96476098,53.2351902 2.76215122,54.4422878 3.31100488,55.3935073 L7.06261463,61.892239 C7.61146829,62.8434585 8.75863902,63.2696049 9.79641951,62.9100439 L11.8814927,62.1871171 C12.714761,61.8969951 13.6545659,62.0967512 14.2652488,62.7340683 C14.5924683,63.0746049 14.9253951,63.4084829 15.2659317,63.7347512 C15.9032488,64.3454341 16.1030049,65.2842878 15.8138341,66.1185073 L15.0899561,68.2035805 C14.7303951,69.241361 15.1565415,70.3885317 16.1087122,70.9373854 L22.6064927,74.6889951 C23.5577122,75.2378488 24.7648098,75.0342878 25.4829805,74.2038732 L26.9259805,72.5354341 C27.5014683,71.8705317 28.4108341,71.5766049 29.2555171,71.8229707 C29.7082976,71.9551902 30.1639317,72.0788488 30.624322,72.1929951 C31.4889805,72.4070195 32.1358098,73.1270927 32.3032244,74.0012634 L32.7141512,76.1405561 C32.9205659,77.2201902 33.8641756,78.0001902 34.9628341,78.0001902 L42.4660537,78.0001902 C43.5647122,78.0001902 44.508322,77.2201902 44.7156878,76.1405561 L45.1256634,74.0012634 C45.2940293,73.1270927 45.9408585,72.4070195 46.8045659,72.1929951 C47.2649561,72.0788488 47.7215415,71.9551902 48.1733707,71.8229707 C49.0180537,71.5766049 49.9274195,71.8705317 50.5029073,72.5354341 L51.9459073,74.2038732 C52.6650293,75.0342878 53.8721268,75.2378488 54.8233463,74.6889951 L61.3211268,70.9373854 C62.2723463,70.3885317 62.6994439,69.241361 62.3389317,68.2035805 L61.6160049,66.1185073 C61.3258829,65.2842878 61.525639,64.3454341 62.1629561,63.7347512 C62.5034927,63.4084829 62.8373707,63.0746049 63.163639,62.7340683 C63.7752732,62.0967512 64.7141268,61.8969951 65.5473951,62.1871171 L67.6324683,62.9100439 C68.6702488,63.2696049 69.8174195,62.8434585 70.3662732,61.8912878 L74.1178829,55.3935073 C74.6667366,54.4422878 74.4641268,53.2351902 73.632761,52.5170195 L71.9652732,51.0740195 C71.2994195,50.4985317 71.0054927,49.5882146 71.2528098,48.7454341 C71.3850293,48.2917024 71.5086878,47.8360683 71.6218829,47.375678 C71.8359073,46.5110195 72.5559805,45.8641902 73.4311024,45.6967756 L75.5703951,45.2858488 C76.649078,45.0784829 77.429078,44.1358244 77.429078,43.0371659 L77.429078,35.5339463 C77.429078,34.436239 76.649078,33.4926293 75.5703951,33.2852634" id="Fill-1" fill="#3BC4F4" mask="url(#mask-2)"></path>
                </g>
                <path d="M81,16.3182674 C79.1676083,16.3182674 77.6817326,14.8323917 77.6817326,13 C77.6817326,11.1676083 79.1676083,9.68173258 81,9.68173258 C82.8323917,9.68173258 84.3182674,11.1676083 84.3182674,13 C84.3182674,14.8323917 82.8323917,16.3182674 81,16.3182674 M93.3766478,10.9849341 L92.6572505,10.8474576 C92.3634652,10.7909605 92.1224105,10.5734463 92.0499058,10.2834275 C92.0122411,10.1290019 91.9708098,9.97551789 91.9265537,9.82391714 C91.8436911,9.54048964 91.9425612,9.2354049 92.1647834,9.04143126 L92.7259887,8.55743879 C93.0047081,8.31544256 93.0725047,7.91054614 92.8879473,7.59039548 L91.6290019,5.40960452 C91.4444444,5.08945386 91.059322,4.94632768 90.7109228,5.06685499 L90.0103578,5.30979284 C89.7306968,5.40677966 89.4152542,5.33992467 89.2099812,5.12617702 C89.1007533,5.01224105 88.9877589,4.90018832 88.873823,4.79001883 C88.6600753,4.58474576 88.5932203,4.2693032 88.6902072,3.98964218 L88.933145,3.29001883 C89.0536723,2.94067797 88.9105461,2.55555556 88.5913371,2.37099812 L86.4096045,1.11205273 C86.0894539,0.927495292 85.6845574,0.996233522 85.4435028,1.2740113 L84.9585687,1.83521657 C84.7655367,2.05743879 84.4595104,2.15630885 84.1770245,2.07438795 C84.0244821,2.02919021 83.8709981,1.98775895 83.7165725,1.95009416 C83.4265537,1.87853107 83.2090395,1.63653484 83.1525424,1.34274953 L83.0150659,0.624293785 C82.9453861,0.261770245 82.6280603,0 82.259887,0 L79.740113,0 C79.3719397,0 79.0546139,0.261770245 78.9849341,0.624293785 L78.8474576,1.34274953 C78.7909605,1.63653484 78.5734463,1.87853107 78.2834275,1.95009416 C78.1290019,1.98775895 77.9755179,2.02919021 77.8229755,2.07438795 C77.5404896,2.15630885 77.2344633,2.05743879 77.0414313,1.83521657 L76.5574388,1.2740113 C76.3154426,0.996233522 75.9105461,0.927495292 75.5903955,1.11205273 L73.4086629,2.37099812 C73.0894539,2.55555556 72.9463277,2.94067797 73.066855,3.29001883 L73.3097928,3.98964218 C73.4067797,4.2693032 73.3399247,4.58474576 73.126177,4.79001883 C73.0122411,4.90018832 72.8992467,5.01224105 72.7900188,5.12617702 C72.5847458,5.33992467 72.2693032,5.40677966 71.9896422,5.30979284 L71.2890772,5.06685499 C70.940678,4.94632768 70.5555556,5.08945386 70.3709981,5.40960452 L69.1120527,7.59039548 C68.9274953,7.91054614 68.9952919,8.31544256 69.2740113,8.55743879 L69.8352166,9.04143126 C70.0574388,9.23446328 70.1563089,9.54048964 70.0734463,9.82391714 C70.0291902,9.97551789 69.9877589,10.1290019 69.9500942,10.2834275 C69.8775895,10.5734463 69.6365348,10.7909605 69.3427495,10.8474576 L68.6233522,10.9849341 C68.2617702,11.0546139 68,11.3719397 68,11.740113 L68,14.259887 C68,14.6290019 68.2617702,14.9453861 68.6233522,15.0150659 L69.3427495,15.1525424 C69.6365348,15.2090395 69.8775895,15.4265537 69.9500942,15.7165725 C69.9877589,15.8709981 70.0291902,16.0244821 70.0734463,16.1770245 C70.1563089,16.4595104 70.0574388,16.7655367 69.8352166,16.9585687 L69.2740113,17.4435028 C68.9952919,17.6845574 68.9274953,18.0894539 69.1120527,18.4096045 L70.3709981,20.5913371 C70.5555556,20.9105461 70.940678,21.0536723 71.2890772,20.933145 L71.9896422,20.6902072 C72.2693032,20.5932203 72.5847458,20.6600753 72.7900188,20.873823 C72.8992467,20.9887006 73.0122411,21.1007533 73.126177,21.2099812 C73.3399247,21.4152542 73.4067797,21.7306968 73.3097928,22.0103578 L73.066855,22.7109228 C72.9463277,23.059322 73.0894539,23.4444444 73.4086629,23.6290019 L75.5903955,24.8888889 C75.9105461,25.0725047 76.3154426,25.0047081 76.5574388,24.7259887 L77.0414313,24.1647834 C77.2344633,23.9425612 77.5404896,23.8436911 77.8229755,23.9265537 C77.9755179,23.9708098 78.1290019,24.0122411 78.2834275,24.0499058 C78.5734463,24.1224105 78.7909605,24.3644068 78.8474576,24.6572505 L78.9849341,25.3766478 C79.0546139,25.7382298 79.3719397,26 79.740113,26 L82.259887,26 C82.6280603,26 82.9453861,25.7382298 83.0150659,25.3766478 L83.1525424,24.6572505 C83.2090395,24.3644068 83.4265537,24.1224105 83.7165725,24.0499058 C83.8709981,24.0122411 84.0244821,23.9708098 84.1770245,23.9265537 C84.4595104,23.8436911 84.7655367,23.9425612 84.9585687,24.1647834 L85.4435028,24.7259887 C85.6845574,25.0047081 86.0894539,25.0725047 86.4096045,24.8888889 L88.5913371,23.6290019 C88.9105461,23.4444444 89.0536723,23.059322 88.933145,22.7109228 L88.6902072,22.0103578 C88.5932203,21.7306968 88.6600753,21.4152542 88.873823,21.2099812 C88.9877589,21.1007533 89.1007533,20.9887006 89.2099812,20.873823 C89.4152542,20.6600753 89.7306968,20.5932203 90.0103578,20.6902072 L90.7109228,20.933145 C91.059322,21.0536723 91.4444444,20.9105461 91.6290019,20.5913371 L92.8879473,18.4096045 C93.0725047,18.0894539 93.0047081,17.6845574 92.7259887,17.4435028 L92.1647834,16.9585687 C91.9425612,16.7655367 91.8436911,16.4595104 91.9265537,16.1770245 C91.9708098,16.0244821 92.0122411,15.8709981 92.0499058,15.7165725 C92.1224105,15.4265537 92.3634652,15.2090395 92.6572505,15.1525424 L93.3766478,15.0150659 C93.7382298,14.9453861 94,14.6290019 94,14.259887 L94,11.740113 C94,11.3719397 93.7382298,11.0546139 93.3766478,10.9849341" id="Fill-4" fill="#FFAB00"></path>
                <path d="M51.7846209,61.1732179 C44.6546611,68.1926214 33.0951503,68.1935636 25.9651904,61.1732179 C18.8352306,54.1528722 18.8352306,42.7710744 25.9651904,35.7507287 C33.0951503,28.7294409 44.6546611,28.7294409 51.7846209,35.7507287 C58.9145808,42.7710744 58.9145808,54.1528722 51.7846209,61.1732179 M57.8782438,29.7498454 C47.3828205,19.4167182 30.3669909,19.4167182 19.8715675,29.7498454 C9.37614416,40.0839148 9.37614416,56.8381474 19.8715675,67.173159 C29.2014707,76.3596267 43.6805235,77.3715514 54.1548948,70.2249507 L68.762174,84.6086035 C70.6463359,86.4637988 73.7017596,86.4637988 75.5868785,84.6086035 C77.4710405,82.7524659 77.4710405,79.7449577 75.5868785,77.8888202 L60.9786424,63.5070518 C68.2368286,53.1927686 67.208147,38.936313 57.8782438,29.7498454" id="Fill-6" fill="#FF0843"></path>
            </g>
        </g>
    </g>
</svg>