<?xml version="1.0" encoding="UTF-8"?>
<svg width="112px" height="87px" viewBox="0 0 112 87" version="1.1" xmlns="http://www.w3.org/2000/svg" xmlns:xlink="http://www.w3.org/1999/xlink">
    <!-- Generator: Sketch 53.2 (72643) - https://sketchapp.com -->
    <title>Group 5</title>
    <desc>Created with Sketch.</desc>
    <defs>
        <polygon id="path-1" points="0 0 112 0 112 87 0 87"></polygon>
    </defs>
    <g id="Page-1" stroke="none" stroke-width="1" fill="none" fill-rule="evenodd">
        <g id="Start-Copy" transform="translate(-721.000000, -2068.000000)">
            <g id="Group-5" transform="translate(721.000000, 2068.000000)">
                <mask id="mask-2" fill="white">
                    <use xlink:href="#path-1"></use>
                </mask>
                <g id="Clip-2"></g>
                <path d="M8.06222819,62.7279998 L64.9387139,62.7279998 L64.9387139,22.7676074 L8.06222819,22.7676074 L8.06222819,62.7279998 Z M67.4191821,15 L5.58081792,15 C2.49836751,15 0,17.5075709 0,20.6013763 L0,64.1604922 C0,67.2552431 2.49836751,69.762814 5.58081792,69.762814 L25.7947967,69.762814 L25.7947967,80.7462014 L19.0147247,80.7462014 C17.9021409,80.7462014 17.0005807,82.564474 17.0005807,83.6811562 C17.0005807,84.7968929 17.9021409,87 19.0147247,87 L53.9852753,87 C55.0978591,87 55.9994193,84.7968929 55.9994193,83.6811562 C55.9994193,82.564474 55.0978591,80.7462014 53.9852753,80.7462014 L47.2052033,80.7462014 L47.2052033,69.762814 L67.4191821,69.762814 C70.5016325,69.762814 73,67.2552431 73,64.1604922 L73,20.6013763 C73,17.5075709 70.5016325,15 67.4191821,15 L67.4191821,15 Z" id="Fill-1" fill="#3BC4F4" mask="url(#mask-2)"></path>
                <path d="M81.989004,51 L57.010996,51 C50.9298085,51 46,46.0076692 46,39.8493571 L46,22 L93,22 L93,39.8493571 C93,46.0076692 88.0701915,51 81.989004,51" id="Fill-3" fill="#FFAA00" mask="url(#mask-2)"></path>
                <path d="M66.0372768,0.703663687 L27.6982631,16.947569 C26.7672456,17.341715 26.7672456,18.6589922 27.6982631,19.0521953 L66.0372768,35.2970435 C68.2499792,36.2343188 70.7500208,36.2343188 72.9627232,35.2970435 L111.301737,19.0521953 C112.232754,18.6589922 112.232754,17.341715 111.301737,16.947569 L72.9627232,0.703663687 C70.7500208,-0.234554562 68.2499792,-0.234554562 66.0372768,0.703663687" id="Fill-4" fill="#FF0843" mask="url(#mask-2)"></path>
            </g>
        </g>
    </g>
</svg>