<?xml version="1.0" encoding="UTF-8"?>
<svg width="76px" height="88px" viewBox="0 0 76 88" version="1.1" xmlns="http://www.w3.org/2000/svg" xmlns:xlink="http://www.w3.org/1999/xlink">
    <!-- Generator: Sketch 53.2 (72643) - https://sketchapp.com -->
    <title>Group 10</title>
    <desc>Created with Sketch.</desc>
    <defs>
        <polygon id="path-1" points="0.617186154 0.454406432 61.6270462 0.454406432 61.6270462 88 0.617186154 88"></polygon>
    </defs>
    <g id="Page-1" stroke="none" stroke-width="1" fill="none" fill-rule="evenodd">
        <g id="Start-Copy" transform="translate(-1201.000000, -2067.000000)">
            <g id="Group-10" transform="translate(1201.000000, 2067.000000)">
                <g id="Group-3" transform="translate(14.000000, 0.000000)">
                    <mask id="mask-2" fill="white">
                        <use xlink:href="#path-1"></use>
                    </mask>
                    <g id="Clip-2"></g>
                    <path d="M44.0345938,2.08985806 L44.0345938,2.08985806 C41.8350246,-0.0902709677 38.2571477,-0.0912172043 36.0585323,2.08985806 C35.7447169,2.40116989 35.4881323,2.7456 35.2639785,3.10516989 L1.72102462,41.3019011 C0.24924,42.9786323 0.24924,45.4757505 1.72102462,47.1505892 L35.2639785,85.3463742 C35.49004,85.7078366 35.7475785,86.0522667 36.0575785,86.361686 C37.2909015,87.5851699 38.9944708,88.1718366 40.7629015,87.9560946 C42.0572708,87.7990194 43.2486246,87.1451699 44.1681323,86.2273204 C55.4282862,74.9879226 61.6273323,60.0790194 61.6273323,44.225772 C61.6273323,28.3081806 55.37964,13.3453419 44.0345938,2.08985806" id="Fill-1" fill="#3BC4F4" mask="url(#mask-2)"></path>
                </g>
                <path d="M21,43.5 C21,37.7013119 16.2986881,33 10.5,33 C4.70038117,33 0,37.7013119 0,43.5 C0,49.2986881 4.70038117,54 10.5,54 C16.2986881,54 21,49.2986881 21,43.5" id="Fill-4" fill="#FFAA00"></path>
                <path d="M46.5500035,1.64394757 L46.5500035,1.64394757 C44.3682809,-0.547506922 40.8194337,-0.548458074 38.6386572,1.64394757 C36.4578807,3.83635321 36.4578807,7.40412483 38.6386572,9.59748163 C47.7789964,18.7856111 52.8122854,31.0031602 52.8122854,43.9987516 C52.8122854,56.9933919 47.7780503,69.210941 38.6386572,78.4000216 C37.5818558,79.4615074 37,80.8739683 37,82.3758375 C37,83.8786578 37.5818558,85.2901676 38.6386572,86.3535557 C39.6945126,87.4159926 41.0994814,88 42.5933843,88 C44.0872871,88 45.4922559,87.4159926 46.5490574,86.3535557 C57.8029995,75.0405523 64,59.9990326 64,43.9987516 C64,27.9984706 57.8029995,12.9579021 46.5500035,1.64394757" id="Fill-6" fill="#FF0843"></path>
                <path d="M30.8026547,17.639727 C28.5639626,15.4538985 24.9208676,15.4529502 22.6821756,17.639727 C21.5973083,18.6989766 21,20.1072001 21,21.605512 C21,23.1028756 21.5973083,24.5101508 22.6821756,25.5694004 C27.7335584,30.5015018 30.5151697,37.0466593 30.5151697,43.9986368 C30.5151697,50.9506144 27.7335584,57.4957718 22.6821756,62.4278732 C21.5973083,63.4861745 21,64.8953464 21,66.39271 C21,67.8900736 21.5973083,69.2973488 22.6821756,70.3565984 C23.7660716,71.415848 25.2083526,72 26.7429007,72 C28.2764777,72 29.7177874,71.415848 30.8026547,70.3575467 C38.0237721,63.3088427 42,53.9472382 42,43.9986368 C42,34.0500355 38.0237721,24.6893793 30.8026547,17.639727" id="Fill-8" fill="#FF0843"></path>
            </g>
        </g>
    </g>
</svg>