<?xml version="1.0" encoding="UTF-8"?>
<svg width="112px" height="89px" viewBox="0 0 112 89" version="1.1" xmlns="http://www.w3.org/2000/svg" xmlns:xlink="http://www.w3.org/1999/xlink">
    <!-- Generator: Sketch 53.2 (72643) - https://sketchapp.com -->
    <title>Group 14</title>
    <desc>Created with Sketch.</desc>
    <defs>
        <polygon id="path-1" points="0.542142857 0.647431373 11.6301429 0.647431373 11.6301429 88.9999127 0.542142857 88.9999127"></polygon>
    </defs>
    <g id="Page-1" stroke="none" stroke-width="1" fill="none" fill-rule="evenodd">
        <g id="Start-Copy" transform="translate(-240.000000, -2394.000000)">
            <g id="Group-14" transform="translate(240.000000, 2394.000000)">
                <path d="M99.7204013,16.1393811 L99.7204013,16.1393811 C98.1850123,14.6206412 95.6886875,14.6197714 94.1532985,16.1393811 C92.6187879,17.6598607 92.6187879,20.1328145 94.1532985,21.6524243 C100.585595,28.0213895 104.127179,36.4901475 104.127179,45.4990758 C104.127179,54.5062645 100.584716,62.9758923 94.1532985,69.3448575 C93.40932,70.0816116 93,71.0601811 93,72.1013791 C93,73.142577 93.40932,74.1211465 94.1532985,74.8579007 C94.8963987,75.5946548 95.8854422,76 96.9368499,76 C97.9873792,76 98.9764227,75.5946548 99.7195229,74.8579007 C107.638898,67.016297 112,56.5895302 112,45.4990758 C112,34.4086214 107.638898,23.9818546 99.7204013,16.1393811" id="Fill-1" fill="#FFAB00"></path>
                <path d="M88.534871,26.1715818 C87.0425285,24.6094727 84.6139484,24.6094727 83.121606,26.1715818 C82.3980719,26.9285076 82,27.9338695 82,29.0035746 C82,30.0732797 82.3980719,31.0786416 83.121606,31.8355675 C86.4889865,35.3583557 88.3435231,40.0339589 88.3435231,44.9991063 C88.3435231,49.9651475 86.4889865,54.639857 83.121606,58.1635389 C82.3980719,58.9204647 82,59.9258266 82,60.9946381 C82,62.0652368 82.3980719,63.0705987 83.121606,63.8275246 C83.8442858,64.5835567 84.8061505,65 85.8286656,65 C86.8503264,65 87.8121911,64.5835567 88.534871,63.8275246 C93.3493197,58.7917784 96,52.1054513 96,44.9991063 C96,37.8927614 93.3493197,31.2064343 88.534871,26.1715818" id="Fill-3" fill="#FF0843"></path>
                <path d="M12.2795987,16.1393811 L12.2795987,16.1393811 C13.8149877,14.6206412 16.3113125,14.6197714 17.8467015,16.1393811 C19.3812121,17.6598607 19.3812121,20.1328145 17.8467015,21.6524243 C11.4144053,28.0213895 7.87282141,36.4901475 7.87282141,45.4990758 C7.87282141,54.5062645 11.4152836,62.9758923 17.8467015,69.3448575 C18.59068,70.0816116 19,71.0601811 19,72.1013791 C19,73.142577 18.59068,74.1211465 17.8467015,74.8579007 C17.1036013,75.5946548 16.1145578,76 15.0631501,76 C14.0126208,76 13.0235773,75.5946548 12.2804771,74.8579007 C4.36110212,67.016297 0,56.5895302 0,45.4990758 C0,34.4086214 4.36110212,23.9818546 12.2795987,16.1393811" id="Fill-5" fill="#FFAB00"></path>
                <path d="M23.465129,26.1715818 C24.9574715,24.6094727 27.3860516,24.6094727 28.878394,26.1715818 C29.6019281,26.9285076 30,27.9338695 30,29.0035746 C30,30.0732797 29.6019281,31.0786416 28.878394,31.8355675 C25.5110135,35.3583557 23.6564769,40.0339589 23.6564769,44.9991063 C23.6564769,49.9651475 25.5110135,54.639857 28.878394,58.1635389 C29.6019281,58.9204647 30,59.9258266 30,60.9946381 C30,62.0652368 29.6019281,63.0705987 28.878394,63.8275246 C28.1557142,64.5835567 27.1938495,65 26.1713344,65 C25.1488193,65 24.1878089,64.5835567 23.465129,63.8275246 C18.6506803,58.7917784 16,52.1054513 16,44.9991063 C16,37.8927614 18.6506803,31.2064343 23.465129,26.1715818" id="Fill-7" fill="#FF0843"></path>
                <path d="M65.8650065,76 L47.1349935,76 C43.1945907,76 40,72.8181326 40,68.8925536 L40,22.1065765 C40,18.1809976 43.1945907,15 47.1349935,15 L65.8650065,15 C69.8062826,15 73,18.1809976 73,22.1065765 L73,68.8925536 C73,72.8181326 69.8062826,76 65.8650065,76" id="Fill-9" fill="#FF0843"></path>
                <g id="Group-13" transform="translate(50.000000, 0.000000)">
                    <mask id="mask-2" fill="white">
                        <use xlink:href="#path-1"></use>
                    </mask>
                    <g id="Clip-12"></g>
                    <path d="M6.08614286,88.9999127 L6.08614286,88.9999127 C3.03642857,88.9999127 0.542142857,86.4607951 0.542142857,83.3562657 L0.542142857,6.29186373 C0.542142857,3.18733431 3.03642857,0.647344118 6.08614286,0.647344118 C9.13585714,0.647344118 11.6301429,3.18733431 11.6301429,6.29186373 L11.6301429,83.3562657 C11.6301429,86.4607951 9.13585714,88.9999127 6.08614286,88.9999127" id="Fill-11" fill="#3BC4F4" mask="url(#mask-2)"></path>
                </g>
            </g>
        </g>
    </g>
</svg>