<?xml version="1.0" encoding="UTF-8"?>
<svg width="89px" height="88px" viewBox="0 0 89 88" version="1.1" xmlns="http://www.w3.org/2000/svg" xmlns:xlink="http://www.w3.org/1999/xlink">
    <!-- Generator: Sketch 53.2 (72643) - https://sketchapp.com -->
    <title>Group 9</title>
    <desc>Created with Sketch.</desc>
    <defs>
        <polygon id="path-1" points="0 0.860060241 73.4582659 0.860060241 73.4582659 74.4142771 0 74.4142771"></polygon>
        <polygon id="path-3" points="0.0462921633 0.00405472471 58.7455307 0.00405472471 58.7455307 65 0.0462921633 65"></polygon>
    </defs>
    <g id="Page-1" stroke="none" stroke-width="1" fill="none" fill-rule="evenodd">
        <g id="Start-Copy" transform="translate(-721.000000, -2395.000000)">
            <g id="Group-9" transform="translate(721.000000, 2395.000000)">
                <g id="Group-3" transform="translate(0.000000, 8.000000)">
                    <mask id="mask-2" fill="white">
                        <use xlink:href="#path-1"></use>
                    </mask>
                    <g id="Clip-2"></g>
                    <path d="M36.7289976,47.0239157 C31.5517049,47.0239157 27.354461,42.8212048 27.354461,37.6362651 C27.354461,32.4522289 31.5517049,28.2495181 36.7289976,28.2495181 C41.9071927,28.2495181 46.1044366,32.4522289 46.1044366,37.6362651 C46.1044366,42.8212048 41.9071927,47.0239157 36.7289976,47.0239157 M71.6949,31.9362651 L69.6653146,31.5459036 C68.8359732,31.3868675 68.1519244,30.7724096 67.9488756,29.9510241 C67.8414854,29.5145783 67.7241683,29.0808434 67.5987293,28.6507229 C67.3640951,27.8492169 67.6438512,26.9844578 68.2746561,26.4386747 L69.8566317,25.0678916 C70.6453634,24.384759 70.8384854,23.2389759 70.3168756,22.3353614 L66.7576561,16.1618675 C66.2369488,15.258253 65.1486073,14.8516265 64.1640463,15.1940964 L62.1859,15.881747 C61.3953634,16.1564458 60.5046561,15.9666867 59.9252902,15.3621687 C59.6148512,15.0386747 59.2980951,14.721506 58.975022,14.4106627 C58.3703878,13.8305422 58.1808756,12.9386747 58.4561195,12.1462048 L59.1419732,10.1663855 C59.4839976,9.18054217 59.0788024,8.09078313 58.1763634,7.56939759 L52.0118024,4.00554217 C51.1093634,3.4823494 49.9641683,3.67662651 49.2819244,4.46548193 L47.9129244,6.05042169 C47.3678512,6.68204819 46.5042171,6.96216867 45.7037537,6.72722892 C45.2741927,6.60162651 44.841022,6.48415663 44.4042415,6.37662651 C43.5848268,6.17331325 42.9711683,5.48837349 42.8114366,4.65795181 L42.4224854,2.62481928 C42.2257537,1.60012048 41.3305341,0.860060241 40.2882171,0.860060241 L33.1706805,0.860060241 C32.127461,0.860060241 31.2322415,1.60012048 31.0364122,2.62481928 L30.647461,4.65795181 C30.4877293,5.48837349 29.8740707,6.17331325 29.0537537,6.37662651 C28.6178756,6.48415663 28.1847049,6.60162651 27.7551439,6.72722892 C26.9546805,6.96216867 26.0910463,6.68204819 25.5450707,6.05042169 L24.1760707,4.46548193 C23.4947293,3.67662651 22.3495341,3.4823494 21.4470951,4.00554217 L15.2825341,7.56939759 C14.3800951,8.09078313 13.9749,9.18054217 14.316022,10.1663855 L15.002778,12.1462048 C15.2771195,12.9386747 15.0876073,13.8305422 14.4829732,14.4106627 C14.1599,14.721506 13.8440463,15.0386747 13.5336073,15.3621687 C12.9542415,15.9666867 12.0626317,16.1564458 11.2720951,15.881747 L9.29485122,15.1940964 C8.3093878,14.8516265 7.22194878,15.258253 6.70033902,16.1618675 L3.14111951,22.3353614 C2.6204122,23.2389759 2.81263171,24.384759 3.60136341,25.0678916 L5.18424146,26.4386747 C5.81504634,26.9844578 6.09480244,27.8492169 5.86016829,28.6507229 C5.73472927,29.0808434 5.6174122,29.5145783 5.50911951,29.9510241 C5.30607073,30.7724096 4.62292439,31.3868675 3.79358293,31.5459036 L1.76309512,31.9362651 C0.739729268,32.133253 -0.000270731707,33.0296386 -0.000270731707,34.0733133 L-0.000270731707,41.2010241 C-0.000270731707,42.2437952 0.739729268,43.1401807 1.76309512,43.3371687 L3.79358293,43.7275301 C4.62292439,43.8856627 5.30607073,44.5010241 5.50911951,45.321506 C5.6174122,45.759759 5.73472927,46.1925904 5.86016829,46.6227108 C6.09480244,47.4242169 5.81504634,48.2880723 5.18424146,48.834759 L3.60136341,50.2055422 C2.81263171,50.8877711 2.6204122,52.0353614 3.14111951,52.9389759 L6.70033902,59.1115663 C7.22194878,60.0151807 8.3093878,60.4209036 9.29485122,60.0784337 L11.2720951,59.3925904 C12.0626317,59.116988 12.9542415,59.306747 13.5336073,59.9121687 C13.8440463,60.234759 14.1599,60.5528313 14.4838756,60.8618675 C15.0876073,61.4428916 15.2771195,62.334759 15.002778,63.1263253 L14.316022,65.1079518 C13.9749,66.0937952 14.3800951,67.1835542 15.2825341,67.7049398 L21.4470951,71.2687952 C22.3495341,71.7901807 23.4947293,71.5968072 24.1760707,70.8070482 L25.5450707,69.223012 C26.0910463,68.5913855 26.9546805,68.3121687 27.7551439,68.5462048 C28.1847049,68.6718072 28.6178756,68.7892771 29.0537537,68.8977108 C29.8740707,69.1010241 30.4877293,69.7841566 30.647461,70.6154819 L31.0364122,72.6477108 C31.2322415,73.6724096 32.127461,74.4142771 33.1706805,74.4142771 L40.2882171,74.4142771 C41.3305341,74.4142771 42.2257537,73.6724096 42.4224854,72.6477108 L42.8114366,70.6154819 C42.9711683,69.7841566 43.5848268,69.1010241 44.4042415,68.8977108 C44.841022,68.7892771 45.2741927,68.6718072 45.7037537,68.5462048 C46.5042171,68.3121687 47.3678512,68.5913855 47.9129244,69.223012 L49.2819244,70.8070482 C49.9641683,71.5968072 51.1093634,71.7901807 52.0118024,71.2687952 L58.1763634,67.7049398 C59.0788024,67.1835542 59.4839976,66.0937952 59.1419732,65.1079518 L58.4561195,63.1263253 C58.1808756,62.334759 58.3703878,61.4428916 58.975022,60.8618675 C59.2980951,60.5528313 59.6148512,60.234759 59.9252902,59.9121687 C60.5046561,59.306747 61.3953634,59.116988 62.1859,59.3925904 L64.1640463,60.0784337 C65.1486073,60.4209036 66.2369488,60.0151807 66.7576561,59.1115663 L70.3168756,52.9389759 C70.8384854,52.0353614 70.6453634,50.8877711 69.8566317,50.2055422 L68.2746561,48.834759 C67.6438512,48.2880723 67.3640951,47.4242169 67.5987293,46.6227108 C67.7241683,46.1925904 67.8414854,45.759759 67.9488756,45.321506 C68.1519244,44.5010241 68.8359732,43.8856627 69.6653146,43.7275301 L71.6949,43.3371687 C72.7182659,43.1401807 73.4582659,42.2437952 73.4582659,41.2010241 L73.4582659,34.0733133 C73.4582659,33.0296386 72.7182659,32.133253 71.6949,31.9362651" id="Fill-1" fill="#3BC4F4" mask="url(#mask-2)"></path>
                </g>
                <path d="M76.5,15.6906417 C74.7380849,15.6906417 73.3093583,14.2628205 73.3093583,12.5009054 C73.3093583,10.7380849 74.7380849,9.30935825 76.5,9.30935825 C78.2619151,9.30935825 79.6906417,10.7380849 79.6906417,12.5009054 C79.6906417,14.2628205 78.2619151,15.6906417 76.5,15.6906417 M88.4006229,10.5624366 L87.7088947,10.4293423 C87.4273142,10.3759235 87.1946255,10.1667753 87.1249095,9.88791105 C87.0886933,9.73942489 87.0488556,9.59274953 87.0063016,9.44607417 C86.9266261,9.17354773 87.0216935,8.88019702 87.2362741,8.69368391 L87.7749891,8.22830653 C88.0429886,7.99652325 88.1081776,7.60629436 87.9307185,7.29845719 L86.7201941,5.2006374 C86.542735,4.89370564 86.172425,4.75608431 85.8374258,4.87288136 L85.1638056,5.10647545 C84.8949008,5.1988266 84.5915906,5.13454295 84.3942127,4.92901637 C84.2891859,4.81946255 84.1814429,4.71171954 84.0709836,4.60578734 C83.865457,4.40840939 83.8011734,4.10509923 83.89443,3.83619441 L84.128024,3.16347965 C84.2448211,2.82848037 84.1062944,2.45817036 83.7993626,2.27980588 L81.7015428,1.06928147 C81.3937056,0.891822396 81.0043822,0.957916848 80.7725989,1.22501086 L80.3063161,1.76372592 C80.1207084,1.97830653 79.8264523,2.0742793 79.5548312,1.9946038 C79.4081559,1.95114443 79.2605751,1.91130668 79.1120889,1.87509054 C78.8332247,1.80627988 78.6240765,1.57359119 78.5706577,1.29110532 L78.4375634,0.600282486 C78.3705635,0.251702158 78.066348,0 77.7114298,0 L75.2885702,0 C74.9345574,0 74.6294365,0.251702158 74.5624366,0.600282486 L74.4302477,1.29110532 C74.3759235,1.57359119 74.1667753,1.80627988 73.8879111,1.87509054 C73.7394249,1.91130668 73.5918441,1.95114443 73.4460742,1.9946038 C73.1735477,2.0742793 72.8792916,1.97830653 72.6936839,1.76372592 L72.2283065,1.22501086 C71.9956178,0.957916848 71.6062944,0.891822396 71.2993626,1.06928147 L69.2006374,2.27980588 C68.8937056,2.45817036 68.7560843,2.82848037 68.871976,3.16347965 L69.10557,3.83619441 C69.199732,4.10509923 69.134543,4.40840939 68.9290164,4.60578734 C68.8194626,4.71171954 68.7108141,4.81946255 68.6057873,4.92901637 C68.4084094,5.13454295 68.1060046,5.1988266 67.8361944,5.10647545 L67.1625742,4.87288136 C66.827575,4.75608431 66.457265,4.89370564 66.2798059,5.2006374 L65.0692815,7.29845719 C64.8918224,7.60629436 64.9570114,7.99652325 65.2250109,8.22830653 L65.7646313,8.69368391 C65.9783065,8.88019702 66.0742793,9.17354773 65.9936984,9.44607417 C65.9520498,9.59274953 65.9113067,9.73942489 65.8750905,9.88791105 C65.8053745,10.1667753 65.5735912,10.3759235 65.2911053,10.4293423 L64.5993771,10.5624366 C64.2517022,10.6294365 64,10.9345574 64,11.2894756 L64,13.7114298 C64,14.066348 64.2517022,14.3705635 64.5993771,14.4375634 L65.2911053,14.5706577 C65.5735912,14.6240765 65.8053745,14.8332247 65.8750905,15.1120889 C65.9113067,15.2605751 65.9520498,15.4081559 65.9936984,15.5548312 C66.0742793,15.8264523 65.9783065,16.1207084 65.7646313,16.3063161 L65.2250109,16.7716935 C64.9570114,17.0043822 64.8918224,17.394611 65.0692815,17.7015428 L66.2798059,19.7993626 C66.457265,20.1062944 66.827575,20.2439157 67.1625742,20.128024 L67.8361944,19.8953354 C68.1060046,19.8011734 68.4084094,19.865457 68.6057873,20.0709836 C68.7108141,20.1814429 68.8194626,20.2891859 68.9290164,20.3942127 C69.134543,20.5915906 69.199732,20.8949008 69.10557,21.164711 L68.871976,21.8374258 C68.7560843,22.172425 68.8937056,22.542735 69.2006374,22.7201941 L71.2993626,23.9316239 C71.6062944,24.109083 71.9956178,24.0429886 72.2283065,23.7749891 L72.6936839,23.2362741 C72.8792916,23.0216935 73.1735477,22.9257207 73.4460742,23.0063016 C73.5918441,23.0488556 73.7394249,23.0886933 73.8879111,23.1258149 C74.1667753,23.1946255 74.3759235,23.4273142 74.4302477,23.7088947 L74.5624366,24.4006229 C74.6294365,24.7482978 74.9345574,25 75.2885702,25 L77.7114298,25 C78.066348,25 78.3705635,24.7482978 78.4375634,24.4006229 L78.5706577,23.7088947 C78.6240765,23.4273142 78.8332247,23.1946255 79.1120889,23.1258149 C79.2605751,23.0886933 79.4081559,23.0488556 79.5548312,23.0063016 C79.8264523,22.9257207 80.1207084,23.0216935 80.3063161,23.2362741 L80.7725989,23.7749891 C81.0043822,24.0429886 81.3937056,24.109083 81.7015428,23.9316239 L83.7993626,22.7201941 C84.1062944,22.542735 84.2448211,22.172425 84.128024,21.8374258 L83.89443,21.164711 C83.8011734,20.8949008 83.865457,20.5915906 84.0709836,20.3942127 C84.1814429,20.2891859 84.2891859,20.1814429 84.3942127,20.0709836 C84.5915906,19.865457 84.8949008,19.8011734 85.1638056,19.8953354 L85.8374258,20.128024 C86.172425,20.2439157 86.542735,20.1062944 86.7201941,19.7993626 L87.9307185,17.7015428 C88.1081776,17.394611 88.0429886,17.0043822 87.7749891,16.7716935 L87.2362741,16.3063161 C87.0216935,16.1207084 86.9266261,15.8264523 87.0063016,15.5548312 C87.0488556,15.4081559 87.0886933,15.2605751 87.1249095,15.1120889 C87.1946255,14.8332247 87.4273142,14.6240765 87.7088947,14.5706577 L88.4006229,14.4375634 C88.7482978,14.3705635 89,14.066348 89,13.7114298 L89,11.2894756 C89,10.9345574 88.7482978,10.6294365 88.4006229,10.5624366" id="Fill-4" fill="#FFAB00"></path>
                <g id="Group-8" transform="translate(15.000000, 23.000000)">
                    <mask id="mask-4" fill="white">
                        <use xlink:href="#path-3"></use>
                    </mask>
                    <g id="Clip-7"></g>
                    <path d="M39.0478091,8.055125 C34.4627939,2.46783333 27.7421576,-0.276611111 21.0769455,0.0267222222 C19.0307182,0.120611111 17.9928545,2.57526389 19.3006879,4.16776389 L29.0285364,16.0230417 C32.1841424,19.8697778 32.0652485,25.6331111 28.4689303,29.0627639 C24.5275515,32.820125 18.3325515,32.3858889 14.9293242,28.2385278 L4.99855152,16.1358889 C3.68088485,14.5298472 1.10276364,15.1347083 0.631657576,17.1641528 C-0.888933333,23.7129028 0.535112121,30.8755417 5.11297576,36.4538056 C10.7599909,43.3374861 19.6475364,45.9040833 27.6804758,43.7780417 L42.3071121,61.6051944 C45.5807182,65.5927639 51.4342333,66.1479722 55.3836576,62.8429028 C59.3330818,59.5369306 59.8819606,53.6255417 56.6092485,49.6370694 L41.9817182,31.8099167 C45.5422788,24.2338056 44.6957182,14.9379028 39.0478091,8.055125" id="Fill-6" fill="#FF0843" mask="url(#mask-4)"></path>
                </g>
            </g>
        </g>
    </g>
</svg>